<mxfile host="app.diagrams.net" modified="2023-12-12T07:40:52.866Z" agent="Mozilla/5.0 (Windows NT 10.0; Win64; x64) AppleWebKit/537.36 (KHTML, like Gecko) Chrome/120.0.0.0 Safari/537.36 Edg/120.0.0.0" etag="5euCmgAvd4TwFZRLI2h-" version="22.1.7" type="github">
  <diagram id="C5RBs43oDa-KdzZeNtuy" name="Page-1">
    <mxGraphModel dx="1050" dy="611" grid="1" gridSize="10" guides="1" tooltips="1" connect="1" arrows="1" fold="1" page="1" pageScale="1" pageWidth="827" pageHeight="1169" math="0" shadow="0">
      <root>
        <mxCell id="WIyWlLk6GJQsqaUBKTNV-0" />
        <mxCell id="WIyWlLk6GJQsqaUBKTNV-1" parent="WIyWlLk6GJQsqaUBKTNV-0" />
        <mxCell id="QsyFvIIu3Wf9frlGzVmZ-4" style="edgeStyle=orthogonalEdgeStyle;rounded=0;orthogonalLoop=1;jettySize=auto;html=1;entryX=0;entryY=0.5;entryDx=0;entryDy=0;" edge="1" parent="WIyWlLk6GJQsqaUBKTNV-1" source="QsyFvIIu3Wf9frlGzVmZ-0" target="QsyFvIIu3Wf9frlGzVmZ-1">
          <mxGeometry relative="1" as="geometry" />
        </mxCell>
        <mxCell id="QsyFvIIu3Wf9frlGzVmZ-0" value="Actor" style="shape=umlActor;verticalLabelPosition=bottom;verticalAlign=top;html=1;outlineConnect=0;" vertex="1" parent="WIyWlLk6GJQsqaUBKTNV-1">
          <mxGeometry x="30" y="290" width="30" height="60" as="geometry" />
        </mxCell>
        <mxCell id="QsyFvIIu3Wf9frlGzVmZ-6" value="" style="edgeStyle=orthogonalEdgeStyle;rounded=0;orthogonalLoop=1;jettySize=auto;html=1;" edge="1" parent="WIyWlLk6GJQsqaUBKTNV-1" source="QsyFvIIu3Wf9frlGzVmZ-1" target="QsyFvIIu3Wf9frlGzVmZ-5">
          <mxGeometry relative="1" as="geometry" />
        </mxCell>
        <mxCell id="QsyFvIIu3Wf9frlGzVmZ-1" value="创建短链接" style="rounded=1;whiteSpace=wrap;html=1;" vertex="1" parent="WIyWlLk6GJQsqaUBKTNV-1">
          <mxGeometry x="160" y="290" width="120" height="60" as="geometry" />
        </mxCell>
        <mxCell id="QsyFvIIu3Wf9frlGzVmZ-16" value="" style="edgeStyle=orthogonalEdgeStyle;rounded=0;orthogonalLoop=1;jettySize=auto;html=1;" edge="1" parent="WIyWlLk6GJQsqaUBKTNV-1" source="QsyFvIIu3Wf9frlGzVmZ-5" target="QsyFvIIu3Wf9frlGzVmZ-15">
          <mxGeometry relative="1" as="geometry" />
        </mxCell>
        <mxCell id="QsyFvIIu3Wf9frlGzVmZ-5" value="生成短链接" style="rounded=1;whiteSpace=wrap;html=1;" vertex="1" parent="WIyWlLk6GJQsqaUBKTNV-1">
          <mxGeometry x="330" y="290" width="120" height="60" as="geometry" />
        </mxCell>
        <mxCell id="QsyFvIIu3Wf9frlGzVmZ-11" value="存在" style="edgeStyle=orthogonalEdgeStyle;rounded=0;orthogonalLoop=1;jettySize=auto;html=1;" edge="1" parent="WIyWlLk6GJQsqaUBKTNV-1" source="QsyFvIIu3Wf9frlGzVmZ-7" target="QsyFvIIu3Wf9frlGzVmZ-10">
          <mxGeometry relative="1" as="geometry" />
        </mxCell>
        <mxCell id="QsyFvIIu3Wf9frlGzVmZ-13" value="" style="edgeStyle=orthogonalEdgeStyle;rounded=0;orthogonalLoop=1;jettySize=auto;html=1;" edge="1" parent="WIyWlLk6GJQsqaUBKTNV-1" source="QsyFvIIu3Wf9frlGzVmZ-7" target="QsyFvIIu3Wf9frlGzVmZ-12">
          <mxGeometry relative="1" as="geometry">
            <Array as="points">
              <mxPoint x="500" y="450" />
              <mxPoint x="500" y="545" />
            </Array>
          </mxGeometry>
        </mxCell>
        <mxCell id="QsyFvIIu3Wf9frlGzVmZ-7" value="判断布隆过滤器中是否存在" style="rounded=1;whiteSpace=wrap;html=1;" vertex="1" parent="WIyWlLk6GJQsqaUBKTNV-1">
          <mxGeometry x="330" y="420" width="120" height="60" as="geometry" />
        </mxCell>
        <mxCell id="QsyFvIIu3Wf9frlGzVmZ-10" value="while循环10次，直到不冲突为止，如果超过10次就抛出异常" style="rounded=1;whiteSpace=wrap;html=1;" vertex="1" parent="WIyWlLk6GJQsqaUBKTNV-1">
          <mxGeometry x="330" y="525" width="120" height="60" as="geometry" />
        </mxCell>
        <mxCell id="QsyFvIIu3Wf9frlGzVmZ-12" value="布隆过滤器" style="shape=cylinder3;whiteSpace=wrap;html=1;boundedLbl=1;backgroundOutline=1;size=15;" vertex="1" parent="WIyWlLk6GJQsqaUBKTNV-1">
          <mxGeometry x="570" y="505" width="60" height="80" as="geometry" />
        </mxCell>
        <mxCell id="QsyFvIIu3Wf9frlGzVmZ-14" value="不存在" style="endArrow=classic;startArrow=classic;html=1;rounded=0;entryX=0.5;entryY=1;entryDx=0;entryDy=0;exitX=0.5;exitY=0;exitDx=0;exitDy=0;" edge="1" parent="WIyWlLk6GJQsqaUBKTNV-1" source="QsyFvIIu3Wf9frlGzVmZ-7" target="QsyFvIIu3Wf9frlGzVmZ-5">
          <mxGeometry width="50" height="50" relative="1" as="geometry">
            <mxPoint x="360" y="400" as="sourcePoint" />
            <mxPoint x="410" y="350" as="targetPoint" />
          </mxGeometry>
        </mxCell>
        <mxCell id="QsyFvIIu3Wf9frlGzVmZ-18" value="" style="edgeStyle=orthogonalEdgeStyle;rounded=0;orthogonalLoop=1;jettySize=auto;html=1;" edge="1" parent="WIyWlLk6GJQsqaUBKTNV-1" source="QsyFvIIu3Wf9frlGzVmZ-15" target="QsyFvIIu3Wf9frlGzVmZ-17">
          <mxGeometry relative="1" as="geometry" />
        </mxCell>
        <mxCell id="QsyFvIIu3Wf9frlGzVmZ-20" value="" style="edgeStyle=orthogonalEdgeStyle;rounded=0;orthogonalLoop=1;jettySize=auto;html=1;" edge="1" parent="WIyWlLk6GJQsqaUBKTNV-1" source="QsyFvIIu3Wf9frlGzVmZ-15" target="QsyFvIIu3Wf9frlGzVmZ-19">
          <mxGeometry relative="1" as="geometry" />
        </mxCell>
        <mxCell id="QsyFvIIu3Wf9frlGzVmZ-15" value="保存到数据库" style="rounded=1;whiteSpace=wrap;html=1;" vertex="1" parent="WIyWlLk6GJQsqaUBKTNV-1">
          <mxGeometry x="530" y="290" width="120" height="60" as="geometry" />
        </mxCell>
        <mxCell id="QsyFvIIu3Wf9frlGzVmZ-17" value="mysqldb" style="shape=cylinder3;whiteSpace=wrap;html=1;boundedLbl=1;backgroundOutline=1;size=15;" vertex="1" parent="WIyWlLk6GJQsqaUBKTNV-1">
          <mxGeometry x="560" y="390" width="60" height="80" as="geometry" />
        </mxCell>
        <mxCell id="QsyFvIIu3Wf9frlGzVmZ-22" value="" style="edgeStyle=orthogonalEdgeStyle;rounded=0;orthogonalLoop=1;jettySize=auto;html=1;" edge="1" parent="WIyWlLk6GJQsqaUBKTNV-1" source="QsyFvIIu3Wf9frlGzVmZ-19" target="QsyFvIIu3Wf9frlGzVmZ-21">
          <mxGeometry relative="1" as="geometry" />
        </mxCell>
        <mxCell id="QsyFvIIu3Wf9frlGzVmZ-19" value="唯一索引冲突" style="rounded=1;whiteSpace=wrap;html=1;" vertex="1" parent="WIyWlLk6GJQsqaUBKTNV-1">
          <mxGeometry x="740" y="290" width="120" height="60" as="geometry" />
        </mxCell>
        <mxCell id="QsyFvIIu3Wf9frlGzVmZ-23" value="" style="edgeStyle=orthogonalEdgeStyle;rounded=0;orthogonalLoop=1;jettySize=auto;html=1;" edge="1" parent="WIyWlLk6GJQsqaUBKTNV-1" source="QsyFvIIu3Wf9frlGzVmZ-21" target="QsyFvIIu3Wf9frlGzVmZ-17">
          <mxGeometry relative="1" as="geometry" />
        </mxCell>
        <mxCell id="QsyFvIIu3Wf9frlGzVmZ-25" value="" style="edgeStyle=orthogonalEdgeStyle;rounded=0;orthogonalLoop=1;jettySize=auto;html=1;" edge="1" parent="WIyWlLk6GJQsqaUBKTNV-1" source="QsyFvIIu3Wf9frlGzVmZ-21" target="QsyFvIIu3Wf9frlGzVmZ-24">
          <mxGeometry relative="1" as="geometry" />
        </mxCell>
        <mxCell id="QsyFvIIu3Wf9frlGzVmZ-21" value="查询数据库是否存在" style="rounded=1;whiteSpace=wrap;html=1;" vertex="1" parent="WIyWlLk6GJQsqaUBKTNV-1">
          <mxGeometry x="740" y="400" width="120" height="60" as="geometry" />
        </mxCell>
        <mxCell id="QsyFvIIu3Wf9frlGzVmZ-24" value="存在则抛出异常，不存在则执行后置逻辑" style="rounded=1;whiteSpace=wrap;html=1;" vertex="1" parent="WIyWlLk6GJQsqaUBKTNV-1">
          <mxGeometry x="740" y="515" width="120" height="60" as="geometry" />
        </mxCell>
      </root>
    </mxGraphModel>
  </diagram>
</mxfile>
